<?xml version="1.0" standalone="no"?>
<!DOCTYPE svg PUBLIC "-//W3C//DTD SVG 20010904//EN"
 "http://www.w3.org/TR/2001/REC-SVG-20010904/DTD/svg10.dtd">
<svg version="1.0" xmlns="http://www.w3.org/2000/svg"
 width="300.000000pt" height="159.000000pt" viewBox="0 0 300.000000 159.000000"
 preserveAspectRatio="xMidYMid meet">

<g transform="translate(0.000000,159.000000) scale(0.100000,-0.100000)"
fill="#000000" stroke="none">
<path d="M675 1479 c-17 -5 -41 -18 -54 -30 -26 -24 -55 -85 -46 -98 2 -5 -16
-19 -43 -31 -84 -39 -89 -48 -89 -155 0 -120 -24 -174 -98 -223 -89 -59 -88
-103 1 -59 72 36 89 36 78 0 -14 -48 -8 -195 10 -242 25 -68 11 -61 -26 13
-26 54 -38 68 -66 77 -18 6 -40 8 -49 5 -18 -7 -17 -19 22 -241 15 -90 27
-201 30 -279 4 -146 15 -173 78 -191 19 -5 39 -13 43 -17 4 -5 126 -8 271 -8
227 0 263 2 263 15 0 11 11 15 40 15 21 0 51 5 65 12 28 13 45 4 27 -14 -7 -7
-12 -15 -12 -20 0 -4 68 -7 151 -7 l151 0 -8 97 c-4 53 -7 107 -6 119 1 14 -6
24 -18 28 -20 6 -46 77 -35 95 10 16 38 12 197 -25 83 -20 211 -42 285 -50
136 -15 172 -25 174 -48 1 -7 0 -58 -1 -115 l-2 -102 56 0 56 0 0 133 0 134
83 39 c60 28 99 39 145 42 48 3 65 9 73 23 9 17 23 19 165 19 143 0 155 1 152
18 -2 9 -14 18 -28 20 -14 2 -164 22 -334 45 l-309 42 -24 95 c-21 86 -23 104
-14 188 6 54 6 103 1 116 -6 17 0 57 21 137 41 162 41 159 -28 161 -32 1 -93
2 -135 4 l-78 2 -19 -66 c-46 -154 -121 -432 -121 -446 0 -11 27 -16 125 -21
72 -4 128 -12 133 -19 5 -6 9 -39 9 -73 l0 -63 -81 -2 c-125 -2 -229 3 -249
14 -28 15 -185 30 -205 19 -12 -6 -23 -5 -37 5 -25 19 -135 18 -210 -1 -74
-20 -227 -15 -253 7 -9 9 -23 13 -29 11 -9 -3 -13 8 -13 39 0 72 -25 146 -89
266 -34 61 -61 117 -61 122 0 6 9 29 21 51 18 36 23 40 47 34 31 -8 32 -8 55
-6 9 0 17 7 17 14 0 16 23 67 30 67 3 0 11 4 19 9 11 7 10 13 -4 34 -13 20
-14 30 -6 46 6 11 11 40 11 64 0 51 -41 117 -87 140 -38 19 -102 27 -138 16z
m-88 -220 c-3 -11 1 -32 10 -47 12 -21 13 -33 4 -55 -6 -16 -15 -25 -21 -22
-11 7 -14 128 -3 138 12 12 15 7 10 -14z m618 -850 c57 -21 70 -40 63 -90 -3
-23 -5 -24 -98 -23 -141 2 -204 18 -254 65 l-41 38 35 -9 c46 -13 176 -13 200
0 11 6 17 17 14 25 -8 21 14 19 81 -6z m-785 -231 c0 -13 9 -34 20 -48 11 -14
20 -37 20 -52 0 -37 -31 -38 -67 -2 -21 22 -25 32 -20 66 7 53 47 83 47 36z"/>
</g>
</svg>
